# xmcd
#
# Track frame offsets:
#	150
#	10109
#	21792
#	34292
#	44412
#	61318
#	74316
#	84871
#	97017
#	108739
#	118424
#	131244
#	143057
#	152671
#	163778
#	175314
#	187736
#	200485
#	211338
#	224185
#	236313
#	252105
#	266127
#	278210
#
# Disc length: 3867 seconds
#
# Revision: 0
# Processed by: cddbd v1.5.2PL0 Copyright (c) Steve Scherf et al.
# Submitted via: audiograbber 1.83.01
#
DISCID=680f1918
DTITLE=Don Gibson - Singer, Songwriter 1966-1969 - CD 3
DYEAR=1993
DGENRE=Country
TTITLE0=Set Me Free ( and Dottie West)
TTITLE1=I'll Never Stand in your way ( and Dottie West)
TTITLE2=Final Examination ( and Dottie West)
TTITLE3=Sweet Dreams ( and Dottie West)
TTITLE4=Solitary
TTITLE5=I Will Always
TTITLE6=Montego Bay
TTITLE7=Blue Darlin
TTITLE8='Good Deal, Lucille
TTITLE9=Am I That Easy To Forget
TTITLE10=Oh Lonesome Me
TTITLE11=One Has My Name ( The Other Has My Heart)
TTITLE12=Bonaparte's Retreat
TTITLE13=A Little Bitty Tear
TTITLE14=Here Comes my Baby Back Again
TTITLE15=Half As Much
TTITLE16=I Can't Stop Loving You
TTITLE17=Tennessee Waltz
TTITLE18=Almost Persuaded
TTITLE19=Four Walls
TTITLE20=I Found Someone New
TTITLE21=Snap Your Fingers
TTITLE22=There's A Story (Goin' Round) ( and Dottie West)
TTITLE23=Lock, Stock And Teardrops (& Dottie West)
EXTD=
EXTT0=
EXTT1=
EXTT2=
EXTT3=
EXTT4=
EXTT5=
EXTT6=
EXTT7=
EXTT8=
EXTT9=
EXTT10=
EXTT11=
EXTT12=
EXTT13=
EXTT14=
EXTT15=
EXTT16=
EXTT17=
EXTT18=
EXTT19=
EXTT20=
EXTT21=
EXTT22=
EXTT23=
PLAYORDER=
